<?xml version="1.0" encoding="UTF-8"?>
<svg width="24px" height="24px" viewBox="0 0 24 24" version="1.1" xmlns="http://www.w3.org/2000/svg" xmlns:xlink="http://www.w3.org/1999/xlink">
    <title>首页</title>
    <g id="页面-1" stroke="none" stroke-width="1" fill="none" fill-rule="evenodd">
        <g id="Apple-TV" transform="translate(-601.000000, -198.000000)">
            <g id="编组-6" transform="translate(370.000000, 115.000000)">
                <g id="选中icon" transform="translate(219.000000, 71.000000)">
                    <g id="首页" transform="translate(12.000000, 12.000000)">
                        <polygon id="Fill-1" fill="#333333" opacity="0" points="0 24 24 24 24 0 0 0"></polygon>
                        <g id="编组" transform="translate(3.000000, 3.000000)">
                            <path d="M10,16.733095 L16,16.733095 L16,7.711305 L9,2.266855 L2,7.711305 L2,16.733095 L8,16.733095 L10,16.733095 Z M18,17.733095 C18,18.285395 17.5523,18.733095 17,18.733095 L1,18.733095 C0.44772,18.733095 0,18.285395 0,17.733095 L0,7.222215 C0,6.913625 0.14247,6.622325 0.38606,6.432865 L8.3861,0.210645 C8.7472,-0.070215 9.2528,-0.070215 9.6139,0.210645 L17.6139,6.432865 C17.8575,6.622325 18,6.913625 18,7.222215 L18,17.733095 Z" id="形状" fill="#98A1B3" fill-rule="nonzero"></path>
                            <polygon id="路径" fill="#1A90FF" points="8 9 8 15 10 15 10 9"></polygon>
                        </g>
                    </g>
                </g>
            </g>
        </g>
    </g>
</svg>