<?xml version="1.0" encoding="UTF-8"?>
<svg width="24px" height="24px" viewBox="0 0 24 24" version="1.1" xmlns="http://www.w3.org/2000/svg" xmlns:xlink="http://www.w3.org/1999/xlink">
    <title>首页</title>
    <g id="页面-1" stroke="none" stroke-width="1" fill="none" fill-rule="evenodd">
        <g id="Apple-TV" transform="translate(-601.000000, -334.000000)">
            <g id="编组-6" transform="translate(370.000000, 115.000000)">
                <g id="选中icon" transform="translate(219.000000, 207.000000)">
                    <g id="首页" transform="translate(12.000000, 12.000000)">
                        <polygon id="Fill-1" fill="#333333" opacity="0" points="0 24 24 24 24 0 0 0"></polygon>
                        <g id="编组" transform="translate(3.000000, 1.000000)" fill-rule="nonzero">
                            <path d="M0.78307,1.82598 L9,0 L17.2169,1.82598 C17.6745,1.92766 18,2.33347 18,2.80217 L18,12.7889 C18,14.795 16.9974,16.6684 15.3282,17.7812 L9,22 L2.6718,17.7812 C1.00261,16.6684 0,14.795 0,12.7889 L0,2.80217 C0,2.33347 0.32553,1.92766 0.78307,1.82598 Z M2,3.60434 L2,12.7889 C2,14.1263 2.6684,15.3752 3.7812,16.1171 L9,19.5963 L14.2188,16.1171 C15.3316,15.3752 16,14.1263 16,12.7889 L16,3.60434 L9,2.04879 L2,3.60434 Z" id="形状" fill="#98A1B3"></path>
                            <polygon id="路径" fill="#1A90FF" points="8 9 8 6 10 6 10 9 13 9 13 11 10 11 10 14 8 14 8 11 5 11 5 9"></polygon>
                        </g>
                    </g>
                </g>
            </g>
        </g>
    </g>
</svg>