<?xml version="1.0" encoding="UTF-8"?>
<svg width="24px" height="24px" viewBox="0 0 24 24" version="1.1" xmlns="http://www.w3.org/2000/svg" xmlns:xlink="http://www.w3.org/1999/xlink">
    <title>设备档案</title>
    <defs>
        <linearGradient x1="34.2011831%" y1="37.4548907%" x2="80.9381158%" y2="90.499919%" id="linearGradient-1">
            <stop stop-color="#1AA8FF" offset="0%"></stop>
            <stop stop-color="#0079E8" offset="100%"></stop>
        </linearGradient>
        <linearGradient x1="4.18362972%" y1="14.7585764%" x2="50%" y2="88.9273356%" id="linearGradient-2">
            <stop stop-color="#FFFFFF" stop-opacity="0.502595061" offset="0%"></stop>
            <stop stop-color="#B3CCFE" stop-opacity="0.20083042" offset="100%"></stop>
        </linearGradient>
        <linearGradient x1="73.1797245%" y1="64.3781939%" x2="-1.03556053e-11%" y2="11.0726644%" id="linearGradient-3">
            <stop stop-color="#FFFFFF" stop-opacity="0" offset="0%"></stop>
            <stop stop-color="#FFFFFF" stop-opacity="0.703671329" offset="100%"></stop>
        </linearGradient>
    </defs>
    <g id="物联网平台" stroke="none" stroke-width="1" fill="none" fill-rule="evenodd">
        <g id="营收管理" transform="translate(-40.000000, -412.000000)">
            <g id="侧边导航" transform="translate(0.000000, 80.000000)">
                <g id="数据查询" transform="translate(24.000000, 320.000000)">
                    <g id="设备档案" transform="translate(16.000000, 12.000000)">
                        <polygon id="Fill-1" fill="#333333" opacity="0" points="0 24 24 24 24 0 0 0"></polygon>
                        <g id="编组" transform="translate(1.000000, 3.000000)" fill="url(#linearGradient-1)" fill-rule="nonzero">
                            <path d="M20.00002,7 L20.00002,17 C20.00002,17.5523 19.55232,18 19.00002,18 L1,18 C0.44772,18 0,17.5523 0,17 L0,7 L20.00002,7 Z M20.00002,5 L0,5 L0,1 C0,0.44772 0.44772,0 1,0 L19.00002,0 C19.55232,0 20.00002,0.44772 20.00002,1 L20.00002,5 Z" id="形状"></path>
                        </g>
                        <g id="编组" transform="translate(6.000000, 7.000000)">
                            <path d="M0,5 L16.1500008,5 C16.6194554,5 17,5.3731 17,5.83333333 L17,14.1666667 C17,14.6269167 16.6194554,15 16.1500008,15 L0.84999915,15 C0.380561619,15 0,14.6269167 0,14.1666667 L0,5 Z M0.84999915,0 L13.6000034,0 L13.6000034,3.33333333 L0,3.33333333 L0,0.833333333 C0,0.3731 0.380561619,0 0.84999915,0 Z" id="形状" stroke="url(#linearGradient-3)" stroke-width="0.5" fill="url(#linearGradient-2)" fill-rule="nonzero"></path>
                            <polygon id="路径" fill="#FFFFFF" points="9.35000765 9.16666667 9.35000765 10.8333333 13.6000034 10.8333333 13.6000034 9.16666667"></polygon>
                        </g>
                    </g>
                </g>
            </g>
        </g>
    </g>
</svg>