<?xml version="1.0" encoding="UTF-8"?>
<svg width="24px" height="24px" viewBox="0 0 24 24" version="1.1" xmlns="http://www.w3.org/2000/svg" xmlns:xlink="http://www.w3.org/1999/xlink">
    <title>设备档案</title>
    <defs>
        <linearGradient x1="37.5169842%" y1="34.5121798%" x2="74.444931%" y2="100%" id="linearGradient-1">
            <stop stop-color="#1AA8FF" offset="0%"></stop>
            <stop stop-color="#0079E8" offset="100%"></stop>
        </linearGradient>
        <linearGradient x1="24.2282917%" y1="4.73434918%" x2="50%" y2="100%" id="linearGradient-2">
            <stop stop-color="#FFFFFF" stop-opacity="0.502595061" offset="0%"></stop>
            <stop stop-color="#B3CCFE" stop-opacity="0.20083042" offset="100%"></stop>
        </linearGradient>
        <linearGradient x1="63.038595%" y1="68.4679913%" x2="21.875%" y2="0%" id="linearGradient-3">
            <stop stop-color="#FFFFFF" stop-opacity="0" offset="0%"></stop>
            <stop stop-color="#FFFFFF" stop-opacity="0.703671329" offset="100%"></stop>
        </linearGradient>
    </defs>
    <g id="页面-1" stroke="none" stroke-width="1" fill="none" fill-rule="evenodd">
        <g id="Apple-TV" transform="translate(-393.000000, -266.000000)">
            <g id="编组-6" transform="translate(370.000000, 115.000000)">
                <g id="设备档案" transform="translate(23.000000, 151.000000)">
                    <polygon id="Fill-1" fill="#333333" opacity="0" points="0 24 24 24 24 0 0 0"></polygon>
                    <g id="编组" transform="translate(3.000000, 2.000000)">
                        <path d="M14,18 L1,18 L1,18 C0.44772,18 0,17.5523 0,17 L0,1 C0,0.44772 0.44772,0 1,0 L15,0 C15.5523,0 16,0.44772 16,1 L16,16 C16,17.1045695 15.1045695,18 14,18 Z" id="路径" fill="url(#linearGradient-1)" fill-rule="nonzero"></path>
                        <path d="M8,4 L18,4 C18.5523,4 19,4.44772 19,5 L19,19 C19,19.5523 18.5523,20 18,20 L8,20 C7.4477,20 7,19.5523 7,19 L7,5 C7,4.44772 7.4477,4 8,4 Z" id="路径" stroke="url(#linearGradient-3)" stroke-width="0.5" fill="url(#linearGradient-2)" fill-rule="nonzero"></path>
                        <path d="M13,18 C13.5522847,18 14,17.5522847 14,17 C14,16.4477153 13.5522847,16 13,16 C12.4477153,16 12,16.4477153 12,17 C12,17.5522847 12.4477153,18 13,18 Z" id="椭圆形" fill="#FFFFFF"></path>
                    </g>
                </g>
            </g>
        </g>
    </g>
</svg>